<svg width="44" height="44" viewBox="0 0 44 44" fill="none" xmlns="http://www.w3.org/2000/svg">
<path d="M32.2905 28.446C34.9533 24.8124 36.146 20.3073 35.6299 15.8321C35.1137 11.3569 32.9269 7.24165 29.5069 4.30958C26.0868 1.3775 21.6858 -0.155119 17.1843 0.0183321C12.6828 0.191783 8.41279 2.05852 5.22851 5.24507C2.04424 8.43162 0.180567 12.703 0.0103366 17.2046C-0.159893 21.7062 1.37588 26.1062 4.3104 29.5241C7.24492 32.942 11.3618 35.1259 15.8373 35.6388C20.3129 36.1518 24.8171 34.9559 28.4488 32.2905H28.446C28.5285 32.4005 28.6165 32.505 28.7155 32.6067L39.303 43.1942C39.8187 43.7102 40.5182 44.0003 41.2477 44.0005C41.9772 44.0008 42.6769 43.7112 43.1929 43.1956C43.7089 42.68 43.999 41.9804 43.9992 41.2509C43.9995 40.5215 43.7099 39.8217 43.1943 39.3057L32.6068 28.7182C32.5085 28.6187 32.4027 28.5295 32.2905 28.446ZM33 17.875C33 19.8612 32.6088 21.828 31.8487 23.6631C31.0886 25.4981 29.9745 27.1655 28.57 28.57C27.1655 29.9744 25.4982 31.0885 23.6631 31.8486C21.8281 32.6088 19.8613 33 17.875 33C15.8888 33 13.922 32.6088 12.0869 31.8486C10.2519 31.0885 8.58452 29.9744 7.18004 28.57C5.77555 27.1655 4.66145 25.4981 3.90135 23.6631C3.14125 21.828 2.75003 19.8612 2.75003 17.875C2.75003 13.8636 4.34355 10.0165 7.18004 7.17998C10.0165 4.34349 13.8636 2.74997 17.875 2.74997C21.8864 2.74997 25.7335 4.34349 28.57 7.17998C31.4065 10.0165 33 13.8636 33 17.875Z" fill="black"/>
</svg>
